<?xml version="1.0" encoding="UTF-8" standalone="no"?>
<!-- Generator: Adobe Illustrator 16.0.0, SVG Export Plug-In . SVG Version: 6.00 Build 0)  -->

<svg
   xmlns:dc="http://purl.org/dc/elements/1.1/"
   xmlns:cc="http://creativecommons.org/ns#"
   xmlns:rdf="http://www.w3.org/1999/02/22-rdf-syntax-ns#"
   xmlns:svg="http://www.w3.org/2000/svg"
   xmlns="http://www.w3.org/2000/svg"
   xmlns:sodipodi="http://sodipodi.sourceforge.net/DTD/sodipodi-0.dtd"
   xmlns:inkscape="http://www.inkscape.org/namespaces/inkscape"
   version="1.1"
   id="Layer_1"
   x="0px"
   y="0px"
   width="16"
   height="12.128404"
   viewBox="0 0 16 12.128404"
   enable-background="new 0 0 512 512"
   xml:space="preserve"
   inkscape:version="0.48.4 r9939"
   sodipodi:docname="embed-close.svg"><metadata
   id="metadata3009"><rdf:RDF><cc:Work
       rdf:about=""><dc:format>image/svg+xml</dc:format><dc:type
         rdf:resource="http://purl.org/dc/dcmitype/StillImage" /></cc:Work></rdf:RDF></metadata><defs
   id="defs3007" /><sodipodi:namedview
   pagecolor="#ffffff"
   bordercolor="#666666"
   borderopacity="1"
   objecttolerance="10"
   gridtolerance="10"
   guidetolerance="10"
   inkscape:pageopacity="0"
   inkscape:pageshadow="2"
   inkscape:window-width="1280"
   inkscape:window-height="962"
   id="namedview3005"
   showgrid="false"
   fit-margin-top="0"
   fit-margin-left="0"
   fit-margin-right="0"
   fit-margin-bottom="0"
   inkscape:zoom="33.67596"
   inkscape:cx="12.905194"
   inkscape:cy="4.7892519"
   inkscape:window-x="-8"
   inkscape:window-y="-8"
   inkscape:window-maximized="1"
   inkscape:current-layer="Layer_1" />
<path
   d="m 2.1608414,6.2497416 3.5195878,-3.51962 c 0.3515758,-0.35158 0.3515758,-0.92162 0,-1.27322 -0.3515757,-0.35161 -0.9216136,-0.35158 -1.2732221,0 l -4.143742,4.14377 c -0.17904533,0.17901 -0.26668555,0.4147 -0.263378990437,0.6493 C -0.00308949,6.4844416 0.08458346,6.7198916 0.2634651,6.8988116 l 4.143742,4.1437104 c 0.351543,0.35157 0.9216136,0.35157 1.2732221,0 0.3516085,-0.35158 0.3515758,-0.92162 0,-1.2732304 l -3.5195878,-3.51955 z"
   id="path2999"
   inkscape:connector-curvature="0" />
<path
   d="m 15.736531,5.4151416 -4.143775,-4.14374 c -0.351576,-0.35157997 -0.921614,-0.35160997 -1.273223,0 -0.3515754,0.35158 -0.3515754,0.92165 0,1.27322 l 3.519654,3.51959 -3.519621,3.51962 c -0.3515756,0.35154 -0.3515756,0.9215804 0,1.2732204 0.351576,0.35155 0.921647,0.35155 1.273222,0 l 4.143743,-4.1437404 c 0.178979,-0.17898 0.26662,-0.41453 0.263378,-0.64907 0.0032,-0.23457 -0.08443,-0.47015 -0.263378,-0.6491 z"
   id="path3001"
   inkscape:connector-curvature="0" />
<path
   d="m 8.1259089,11.305342 c -0.087968,0.53527 -0.5931839,0.89788 -1.128421,0.80991 l 0,0 c -0.5352372,-0.088 -0.8978458,-0.59315 -0.8098782,-1.12842 L 7.8577501,0.82305163 c 0.087968,-0.53524 0.5931511,-0.89784 1.128421,-0.80991 l 0,0 c 0.5352372,0.088 0.8978457,0.59318 0.8098781,1.12841997 L 8.1259089,11.305342 z"
   id="path3003"
   inkscape:connector-curvature="0" />
</svg>