<?xml version="1.0" encoding="UTF-8" standalone="no"?>
<svg
   xmlns:dc="http://purl.org/dc/elements/1.1/"
   xmlns:cc="http://creativecommons.org/ns#"
   xmlns:rdf="http://www.w3.org/1999/02/22-rdf-syntax-ns#"
   xmlns:svg="http://www.w3.org/2000/svg"
   xmlns="http://www.w3.org/2000/svg"
   xmlns:sodipodi="http://sodipodi.sourceforge.net/DTD/sodipodi-0.dtd"
   xmlns:inkscape="http://www.inkscape.org/namespaces/inkscape"
   enable-background="new 0 0 32 32"
   height="16"
   id="Layer_1"
   version="1.0"
   viewBox="0 0 16 16"
   width="16"
   xml:space="preserve"
   inkscape:version="0.48.4 r9939"
   sodipodi:docname="facebook.svg"><metadata
     id="metadata3828"><rdf:RDF><cc:Work
         rdf:about=""><dc:format>image/svg+xml</dc:format><dc:type
           rdf:resource="http://purl.org/dc/dcmitype/StillImage" /></cc:Work></rdf:RDF></metadata><defs
     id="defs3826" /><sodipodi:namedview
     pagecolor="#ffffff"
     bordercolor="#666666"
     borderopacity="1"
     objecttolerance="10"
     gridtolerance="10"
     guidetolerance="10"
     inkscape:pageopacity="0"
     inkscape:pageshadow="2"
     inkscape:window-width="1280"
     inkscape:window-height="962"
     id="namedview3824"
     showgrid="false"
     fit-margin-top="0"
     fit-margin-left="0"
     fit-margin-right="0"
     fit-margin-bottom="0"
     inkscape:zoom="7.375"
     inkscape:cx="25.762712"
     inkscape:cy="6.8474576"
     inkscape:window-x="-8"
     inkscape:window-y="-8"
     inkscape:window-maximized="1"
     inkscape:current-layer="Layer_1" /><g
     id="g3807"
     transform="scale(0.5,0.5)"><path
       d="m 32,30 c 0,1.104 -0.896,2 -2,2 H 2 C 0.896,32 0,31.104 0,30 V 2 C 0,0.896 0.896,0 2,0 h 28 c 1.104,0 2,0.896 2,2 v 28 z"
       id="path3809"
       inkscape:connector-curvature="0"
       style="fill:#3b5998" /><path
       d="M 22,32 V 20 h 4 l 1,-5 h -5 v -2 c 0,-2 1.002,-3 3,-3 h 2 V 5 c -1,0 -2.24,0 -4,0 -3.675,0 -6,2.881 -6,7 v 3 h -4 v 5 h 4 v 12 h 5 z"
       id="f"
       inkscape:connector-curvature="0"
       style="fill:#ffffff" /></g><g
     id="g3812"
     transform="translate(0,-16)" /><g
     id="g3814"
     transform="translate(0,-16)" /><g
     id="g3816"
     transform="translate(0,-16)" /><g
     id="g3818"
     transform="translate(0,-16)" /><g
     id="g3820"
     transform="translate(0,-16)" /><g
     id="g3822"
     transform="translate(0,-16)" /></svg>