<?xml version="1.0" encoding="UTF-8" standalone="no"?>
<!-- Created with Inkscape (http://www.inkscape.org/) -->

<svg
   xmlns:dc="http://purl.org/dc/elements/1.1/"
   xmlns:cc="http://creativecommons.org/ns#"
   xmlns:rdf="http://www.w3.org/1999/02/22-rdf-syntax-ns#"
   xmlns:svg="http://www.w3.org/2000/svg"
   xmlns="http://www.w3.org/2000/svg"
   xmlns:sodipodi="http://sodipodi.sourceforge.net/DTD/sodipodi-0.dtd"
   xmlns:inkscape="http://www.inkscape.org/namespaces/inkscape"
   width="430.32288"
   height="430.33209"
   id="svg2"
   version="1.1"
   inkscape:version="0.48.4 r9939"
   sodipodi:docname="logo.svg">
  <sodipodi:namedview
     id="base"
     pagecolor="#ffffff"
     bordercolor="#666666"
     borderopacity="1.0"
     inkscape:pageopacity="0"
     inkscape:pageshadow="2"
     inkscape:zoom="0.70710678"
     inkscape:cx="59.922691"
     inkscape:cy="18.48272"
     inkscape:document-units="px"
     inkscape:current-layer="g4388"
     showgrid="false"
     inkscape:snap-object-midpoints="true"
     inkscape:window-width="1280"
     inkscape:window-height="962"
     inkscape:window-x="-8"
     inkscape:window-y="-8"
     inkscape:window-maximized="1"
     fit-margin-top="0"
     fit-margin-left="0"
     fit-margin-right="0"
     fit-margin-bottom="0" />
  <defs
     id="defs4" />
  <metadata
     id="metadata7">
    <rdf:RDF>
      <cc:Work
         rdf:about="">
        <dc:format>image/svg+xml</dc:format>
        <dc:type
           rdf:resource="http://purl.org/dc/dcmitype/StillImage" />
        <dc:title></dc:title>
      </cc:Work>
    </rdf:RDF>
  </metadata>
  <g
     transform="translate(-136.26711,-397.48185)"
     inkscape:label="Layer 1"
     inkscape:groupmode="layer"
     id="layer1">
    <g
       id="g3787"
       transform="translate(10,6)">
      <g
         id="g4388"
         transform="matrix(0.70710678,0.70710678,-0.70710678,0.70710678,528.96695,-63.743398)">
        <g
           transform="translate(-3.2023164e-6,7.2235291e-6)"
           id="g3783">
          <path
             transform="matrix(1.6723685,0,0,1.6355263,-229.5658,-385.54068)"
             d="m 449.99998,606.64789 c 0,59.96234 -48.60908,108.57142 -108.57142,108.57142 -59.96234,0 -108.57143,-48.60908 -108.57143,-108.57142 0,-59.96234 48.60909,-108.57143 108.57143,-108.57143 59.96234,0 108.57142,48.60909 108.57142,108.57143 z"
             sodipodi:ry="108.57143"
             sodipodi:rx="108.57143"
             sodipodi:cy="606.64789"
             sodipodi:cx="341.42856"
             id="path3763"
             style="fill:#ffcc00;fill-opacity:1;stroke:none"
             sodipodi:type="arc" />
          <path
             transform="matrix(1.235,0,0,1.1875,-124.34286,52.503522)"
             d="m 577.14285,466.64789 c 0,44.18278 -89.54305,80 -200,80 -110.45695,0 -200,-35.81722 -200,-80 0,-44.18278 89.54305,-80 200,-80 110.45695,0 200,35.81722 200,80 z"
             sodipodi:ry="80"
             sodipodi:rx="200"
             sodipodi:cy="466.64789"
             sodipodi:cx="377.14285"
             id="path3773"
             style="fill:#0066cc;fill-opacity:0.79545456;stroke:none"
             sodipodi:type="arc" />
        </g>
        <path
           transform="matrix(0,1.235,-1.1875,0,895.57293,140.87648)"
           d="m 577.14285,466.64789 c 0,44.18278 -89.54305,80 -200,80 -110.45695,0 -200,-35.81722 -200,-80 0,-44.18278 89.54305,-80 200,-80 110.45695,0 200,35.81722 200,80 z"
           sodipodi:ry="80"
           sodipodi:rx="200"
           sodipodi:cy="466.64789"
           sodipodi:cx="377.14285"
           id="path3781"
           style="fill:#009900;fill-opacity:0.79545456;stroke:none"
           sodipodi:type="arc" />
        <path
           style="fill:#ffffff;fill-opacity:1;stroke:none"
           d="m 301.40386,342.407 c -40.50133,41.5235 -69.16389,144.18063 -69.16389,264.23696 0,156.80828 48.87083,283.92547 109.18171,283.92547 60.31088,0 109.2259,-127.11719 109.2259,-283.92547 0,-156.80828 -48.91502,-283.92547 -109.2259,-283.92547 -14.13536,0 -27.61946,6.97723 -40.01782,19.68851 z m 5.19281,34.36097 c 10.78587,-11.0581 22.55014,-17.12525 34.84711,-17.12525 52.46705,0 94.97328,110.58691 94.97328,247.00124 0,136.41433 -42.50623,247.00124 -94.97328,247.00124 -52.46706,0 -95.01748,-110.58691 -95.01748,-247.00124 0,-104.44221 24.93651,-193.75289 60.17037,-229.87599 z"
           id="path3181"
           inkscape:connector-curvature="0" />
        <path
           style="fill:#ffffff;fill-opacity:1;stroke:none"
           d="m 74.739135,569.08612 c -11.145777,11.70789 -17.235727,24.37204 -17.235727,37.56504 0,60.31088 127.139282,109.20381 283.947562,109.20381 156.80829,0 283.90338,-48.89293 283.90338,-109.20381 0,-60.31087 -127.0951,-109.2038 -283.90338,-109.2038 -122.50646,0 -226.90548,29.82482 -266.711835,71.63876 z m 36.835845,2.71794 c 36.1231,-35.23386 125.41168,-60.14827 229.8539,-60.14827 136.41433,0 247.02333,42.52832 247.02333,94.99537 0,52.46706 -110.609,94.99538 -247.02333,94.99538 -136.41434,0 -246.979143,-42.52832 -246.979143,-94.99538 0,-12.29697 6.067143,-24.06123 17.125243,-34.8471 z"
           id="path3982"
           inkscape:connector-curvature="0" />
        <g
           id="g3989"
           transform="translate(-77.781749,796.20224)" />
      </g>
    </g>
  </g>
  <g
     id="g3955"
     transform="translate(190.85977,278.53588)"
     inkscape:label="Gear24" />
</svg>
