<?xml version="1.0" encoding="UTF-8" standalone="no"?>
<!-- Created with Inkscape (http://www.inkscape.org/) -->

<svg
   xmlns:dc="http://purl.org/dc/elements/1.1/"
   xmlns:cc="http://creativecommons.org/ns#"
   xmlns:rdf="http://www.w3.org/1999/02/22-rdf-syntax-ns#"
   xmlns:svg="http://www.w3.org/2000/svg"
   xmlns="http://www.w3.org/2000/svg"
   xmlns:sodipodi="http://sodipodi.sourceforge.net/DTD/sodipodi-0.dtd"
   xmlns:inkscape="http://www.inkscape.org/namespaces/inkscape"
   width="15.99138"
   height="16.090939"
   id="svg2"
   version="1.1"
   inkscape:version="0.48.4 r9939"
   sodipodi:docname="pin.svg">
  <defs
     id="defs4" />
  <sodipodi:namedview
     id="base"
     pagecolor="#ffffff"
     bordercolor="#666666"
     borderopacity="1.0"
     inkscape:pageopacity="0.0"
     inkscape:pageshadow="2"
     inkscape:zoom="15.839192"
     inkscape:cx="9.0309427"
     inkscape:cy="11.637313"
     inkscape:document-units="px"
     inkscape:current-layer="layer1"
     showgrid="false"
     inkscape:snap-object-midpoints="true"
     fit-margin-top="0"
     fit-margin-left="0"
     fit-margin-right="0"
     fit-margin-bottom="0"
     inkscape:window-width="1280"
     inkscape:window-height="962"
     inkscape:window-x="-8"
     inkscape:window-y="-8"
     inkscape:window-maximized="1">
    <inkscape:grid
       type="xygrid"
       id="grid3124"
       empspacing="5"
       visible="true"
       enabled="true"
       snapvisiblegridlinesonly="true"
       originx="-482.11658px"
       originy="-583.33101px" />
  </sodipodi:namedview>
  <metadata
     id="metadata7">
    <rdf:RDF>
      <cc:Work
         rdf:about="">
        <dc:format>image/svg+xml</dc:format>
        <dc:type
           rdf:resource="http://purl.org/dc/dcmitype/StillImage" />
      </cc:Work>
    </rdf:RDF>
  </metadata>
  <g
     inkscape:label="Layer 1"
     inkscape:groupmode="layer"
     id="layer1"
     transform="translate(-482.11658,-452.94023)">
    <path
       sodipodi:type="arc"
       style="fill:#ffffff;fill-opacity:1;stroke:#ff3f00;stroke-width:2.06501030999999990;stroke-opacity:1"
       id="path3151"
       sodipodi:cx="459.19644"
       sodipodi:cy="445.21933"
       sodipodi:rx="15.535714"
       sodipodi:ry="15.535714"
       d="m 474.73216,445.21933 c 0,8.58014 -6.95558,15.53571 -15.53572,15.53571 -8.58014,0 -15.53571,-6.95557 -15.53571,-15.53571 0,-8.58014 6.95557,-15.53571 15.53571,-15.53571 8.58014,0 15.53572,6.95557 15.53572,15.53571 z"
       transform="matrix(0.48275863,0,0,0.48576419,268.43554,244.71437)" />
    <path
       style="fill:#ff3f00;fill-opacity:1"
       d="m 489.07342,466.05275 c 0.29501,-0.79766 0.77766,-1.07334 1.87916,-1.07334 1.94843,0 3.42409,-1.52627 3.73743,-3.86558 0.0688,-0.51386 -0.055,-1.00825 -0.0877,-1.3591 -0.0284,-0.3054 -0.13305,-0.58322 -0.23029,-0.82582 -0.12437,-0.31029 -0.4857,-0.64238 -0.85994,-1.04609 -1.84084,-1.98577 -5.38468,-1.64119 -7.11673,0.6152 -0.75139,0.97886 -0.77463,3.50354 -0.039,4.2393 0.98376,0.98395 1.42393,0.63024 1.09272,-0.87806 -0.50257,-2.28863 0.79593,-3.8894 3.00521,-3.70476 2.2292,0.18629 3.12681,2.05819 1.97292,4.1144 -1.13491,2.02239 -2.79156,1.52075 -1.96582,-0.7031 0.47197,-1.27107 0.3016,-2.12852 -0.3786,-2.30701 -0.87735,-0.23022 -1.33841,0.2975 -1.69717,1.88236 0,0 -0.10436,1.16048 -0.20389,1.76447 -0.61117,3.70914 -0.81802,4.0496 -2.1957,2.75507 -4.93505,-4.63718 0.0619,-12.78228 6.36888,-10.38135 6.18759,2.35549 4.60215,11.84675 -1.9789,11.84675 -1.56218,0 -1.66749,-0.0868 -1.3026,-1.07334 z"
       id="path3141"
       inkscape:connector-curvature="0"
       sodipodi:nodetypes="sssssssssssssssssss" />
  </g>
</svg>
