<?xml version="1.0" encoding="UTF-8" standalone="no"?>
<!-- Generator: IcoMoon.io -->

<svg
   xmlns:dc="http://purl.org/dc/elements/1.1/"
   xmlns:cc="http://creativecommons.org/ns#"
   xmlns:rdf="http://www.w3.org/1999/02/22-rdf-syntax-ns#"
   xmlns:svg="http://www.w3.org/2000/svg"
   xmlns="http://www.w3.org/2000/svg"
   xmlns:sodipodi="http://sodipodi.sourceforge.net/DTD/sodipodi-0.dtd"
   xmlns:inkscape="http://www.inkscape.org/namespaces/inkscape"
   width="16.968809"
   height="16.968809"
   viewBox="0 0 16.968809 16.968809"
   id="svg3998"
   version="1.1"
   inkscape:version="0.48.4 r9939"
   sodipodi:docname="tumblr.svg"
   style="fill:#000000">
  <metadata
     id="metadata4069">
    <rdf:RDF>
      <cc:Work
         rdf:about="">
        <dc:format>image/svg+xml</dc:format>
        <dc:type
           rdf:resource="http://purl.org/dc/dcmitype/StillImage" />
        <dc:title></dc:title>
      </cc:Work>
    </rdf:RDF>
  </metadata>
  <defs
     id="defs4067" />
  <sodipodi:namedview
     pagecolor="#ffffff"
     bordercolor="#666666"
     borderopacity="1"
     objecttolerance="10"
     gridtolerance="10"
     guidetolerance="10"
     inkscape:pageopacity="0"
     inkscape:pageshadow="2"
     inkscape:window-width="1280"
     inkscape:window-height="962"
     id="namedview4065"
     showgrid="false"
     fit-margin-top="0"
     fit-margin-left="0"
     fit-margin-right="0"
     fit-margin-bottom="0"
     inkscape:zoom="14.75"
     inkscape:cx="20.822511"
     inkscape:cy="17.023225"
     inkscape:window-x="-8"
     inkscape:window-y="-8"
     inkscape:window-maximized="1"
     inkscape:current-layer="svg3998" />
  <path
     d="m 9.4829551,7.4863599 -3.12e-5,3.6519901 c 0,0.9266 -0.012008,1.46052 0.086238,1.7232 0.097466,0.26127 0.3418012,0.53249 0.6080311,0.68931 0.353747,0.2119 0.75699,0.31775 1.21182,0.31775 0.80864,0 1.286207,-0.10679 2.085645,-0.6322 l 0,2.40069 0,0 c -0.681481,0.3205 -1.276662,0.50828 -1.829614,0.63816 -0.553606,0.12853 -1.151812,0.19346 -1.7943694,0.19346 -0.7302612,0 -1.1611072,-0.0918 -1.7217934,-0.27534 C 7.5681327,16.00831 7.0893491,15.74417 6.6938715,15.40524 6.2969904,15.06337 6.0229631,14.70024 5.8697311,14.31624 5.7164992,13.93205 5.6402419,13.37411 5.6402419,12.64382 l 0,-5.6000001 -2.1430956,0 0,-2.2613 c 0.6270254,-0.20339 1.3280936,-0.49572 1.774347,-0.87567 0.4484055,-0.38129 0.8072671,-0.83752 1.0776764,-1.37145 0.2712203,-0.53249 0.4576686,-1.21188 0.5594074,-2.03532996 l 2.5744094,0 -3.12e-5,3.99213996 3.9917027,0 0,2.99415 -3.9917027,0 z"
     id="path4063"
     inkscape:connector-curvature="0"
     style="fill:#000000" />
</svg>
