<?xml version="1.0" encoding="UTF-8" standalone="no"?>
<!-- Generator: Adobe Illustrator 15.1.0, SVG Export Plug-In . SVG Version: 6.00 Build 0)  -->

<svg
   xmlns:dc="http://purl.org/dc/elements/1.1/"
   xmlns:cc="http://creativecommons.org/ns#"
   xmlns:rdf="http://www.w3.org/1999/02/22-rdf-syntax-ns#"
   xmlns:svg="http://www.w3.org/2000/svg"
   xmlns="http://www.w3.org/2000/svg"
   xmlns:sodipodi="http://sodipodi.sourceforge.net/DTD/sodipodi-0.dtd"
   xmlns:inkscape="http://www.inkscape.org/namespaces/inkscape"
   version="1.1"
   id="Layer_1"
   x="0px"
   y="0px"
   width="16"
   height="16"
   viewBox="0 0 16 16"
   enable-background="new 0 0 612 792"
   xml:space="preserve"
   inkscape:version="0.48.4 r9939"
   sodipodi:docname="twitter.svg"><metadata
   id="metadata3005"><rdf:RDF><cc:Work
       rdf:about=""><dc:format>image/svg+xml</dc:format><dc:type
         rdf:resource="http://purl.org/dc/dcmitype/StillImage" /></cc:Work></rdf:RDF></metadata><defs
   id="defs3003" /><sodipodi:namedview
   pagecolor="#ffffff"
   bordercolor="#666666"
   borderopacity="1"
   objecttolerance="10"
   gridtolerance="10"
   guidetolerance="10"
   inkscape:pageopacity="0"
   inkscape:pageshadow="2"
   inkscape:window-width="1280"
   inkscape:window-height="962"
   id="namedview3001"
   showgrid="true"
   fit-margin-top="0"
   fit-margin-left="0"
   fit-margin-right="0"
   fit-margin-bottom="0"
   inkscape:zoom="13.485026"
   inkscape:cx="22.112859"
   inkscape:cy="15.878665"
   inkscape:window-x="-8"
   inkscape:window-y="-8"
   inkscape:window-maximized="1"
   inkscape:current-layer="g2997"
   inkscape:snap-object-midpoints="true" />
<g
   id="g2997"
   transform="matrix(0.1000005,0,0,0.1000005,-20.600203,-31.72694)">
	<path
   d="m 366,347.64541 c -5.8864,2.6112 -12.2136,4.3752 -18.8528,5.1688 6.7768,-4.0624 11.9824,-10.4952 14.4328,-18.1608 -6.3432,3.7624 -13.368,6.4936 -20.8456,7.9656 -5.9872,-6.38 -14.5184,-10.3656 -23.96,-10.3656 -18.128,0 -32.8264,14.6968 -32.8264,32.8248 0,2.5728 0.2904,5.0784 0.8504,7.4808 -27.2816,-1.3688 -51.4688,-14.4376 -67.6592,-34.2976 -2.8256,4.848 -4.4448,10.4864 -4.4448,16.5024 0,11.3888 5.7952,21.436 14.6032,27.3224 -5.3808,-0.1704 -10.4424,-1.6472 -14.868,-4.1056 -0.003,0.1368 -0.003,0.2744 -0.003,0.4128 0,15.904 11.3152,29.1704 26.332,32.188 -2.7544,0.7504 -5.6544,1.1512 -8.648,1.1512 -2.1152,0 -4.1712,-0.2064 -6.176,-0.5888 4.1776,13.0408 16.3,22.5312 30.6648,22.7952 -11.2344,8.8048 -25.388,14.0528 -40.768,14.0528 -2.6496,0 -5.2624,-0.156 -7.8304,-0.4592 14.5272,9.3144 31.7816,14.7488 50.3192,14.7488 60.3784,0 93.3968,-50.0184 93.3968,-93.3976 0,-1.4232 -0.032,-2.8384 -0.0952,-4.2472 6.4128,-4.6272 11.9776,-10.408 16.3784,-16.9912 z"
   id="path2999"
   inkscape:connector-curvature="0"
   style="fill:#2aa9e0" />
</g>
</svg>